<svg width="22" height="22" viewBox="0 0 22 22" fill="none" xmlns="http://www.w3.org/2000/svg">
<path d="M10.8438 5.10938C13.7969 5.10938 16.2344 7.54688 16.2344 10.5C16.2344 13.5 13.7969 15.8906 10.8438 15.8906C7.84375 15.8906 5.45312 13.5 5.45312 10.5C5.45312 7.54688 7.84375 5.10938 10.8438 5.10938ZM10.8438 14.0156C12.7656 14.0156 14.3125 12.4688 14.3125 10.5C14.3125 8.57812 12.7656 7.03125 10.8438 7.03125C8.875 7.03125 7.32812 8.57812 7.32812 10.5C7.32812 12.4688 8.92188 14.0156 10.8438 14.0156ZM17.6875 4.92188C17.6875 4.21875 17.125 3.65625 16.4219 3.65625C15.7188 3.65625 15.1562 4.21875 15.1562 4.92188C15.1562 5.625 15.7188 6.1875 16.4219 6.1875C17.125 6.1875 17.6875 5.625 17.6875 4.92188ZM21.25 6.1875C21.3438 7.92188 21.3438 13.125 21.25 14.8594C21.1562 16.5469 20.7812 18 19.5625 19.2656C18.3438 20.4844 16.8438 20.8594 15.1562 20.9531C13.4219 21.0469 8.21875 21.0469 6.48438 20.9531C4.79688 20.8594 3.34375 20.4844 2.07812 19.2656C0.859375 18 0.484375 16.5469 0.390625 14.8594C0.296875 13.125 0.296875 7.92188 0.390625 6.1875C0.484375 4.5 0.859375 3 2.07812 1.78125C3.34375 0.5625 4.79688 0.1875 6.48438 0.09375C8.21875 0 13.4219 0 15.1562 0.09375C16.8438 0.1875 18.3438 0.5625 19.5625 1.78125C20.7812 3 21.1562 4.5 21.25 6.1875ZM19 16.6875C19.5625 15.3281 19.4219 12.0469 19.4219 10.5C19.4219 9 19.5625 5.71875 19 4.3125C18.625 3.42188 17.9219 2.67188 17.0312 2.34375C15.625 1.78125 12.3438 1.92188 10.8438 1.92188C9.29688 1.92188 6.01562 1.78125 4.65625 2.34375C3.71875 2.71875 3.01562 3.42188 2.64062 4.3125C2.07812 5.71875 2.21875 9 2.21875 10.5C2.21875 12.0469 2.07812 15.3281 2.64062 16.6875C3.01562 17.625 3.71875 18.3281 4.65625 18.7031C6.01562 19.2656 9.29688 19.125 10.8438 19.125C12.3438 19.125 15.625 19.2656 17.0312 18.7031C17.9219 18.3281 18.6719 17.625 19 16.6875Z" fill="white"/>
</svg>
