<svg width="26" height="19" viewBox="0 0 26 19" fill="none" xmlns="http://www.w3.org/2000/svg">
<path d="M25.0781 3.35938C25.6406 5.32812 25.6406 9.54688 25.6406 9.54688C25.6406 9.54688 25.6406 13.7188 25.0781 15.7344C24.7969 16.8594 23.9062 17.7031 22.8281 17.9844C20.8125 18.5 12.8438 18.5 12.8438 18.5C12.8438 18.5 4.82812 18.5 2.8125 17.9844C1.73438 17.7031 0.84375 16.8594 0.5625 15.7344C0 13.7188 0 9.54688 0 9.54688C0 9.54688 0 5.32812 0.5625 3.35938C0.84375 2.23438 1.73438 1.34375 2.8125 1.0625C4.82812 0.5 12.8438 0.5 12.8438 0.5C12.8438 0.5 20.8125 0.5 22.8281 1.0625C23.9062 1.34375 24.7969 2.23438 25.0781 3.35938ZM10.2188 13.3438L16.875 9.54688L10.2188 5.75V13.3438Z" fill="white"/>
</svg>
