<svg width="23" height="26" viewBox="0 0 23 26" fill="none" xmlns="http://www.w3.org/2000/svg">
<path d="M22.3438 10.3438C20.2344 10.3906 18.2656 9.73438 16.5781 8.51562V16.9062C16.5781 20.0938 14.6094 22.9062 11.6094 24.0312C8.65625 25.1562 5.28125 24.3125 3.21875 21.9219C1.10938 19.4844 0.734375 16.0625 2.23438 13.25C3.73438 10.4844 6.82812 8.9375 10.0156 9.35938V13.5781C8.5625 13.1094 6.96875 13.625 6.07812 14.8438C5.23438 16.1094 5.23438 17.75 6.125 18.9688C7.01562 20.1875 8.60938 20.7031 10.0156 20.2344C11.4688 19.7656 12.4531 18.4062 12.4531 16.9062V0.5H16.5781C16.5781 0.875 16.5781 1.20312 16.6719 1.57812C16.9531 3.125 17.8438 4.48438 19.2031 5.32812C20.0938 5.9375 21.2188 6.26562 22.3438 6.26562V10.3438Z" fill="white"/>
</svg>
